# xmcd
#
# Track frame offsets:
#	150
#	24770
#	44215
#	64250
#	83957
#	100985
#	122210
#	146292
#	165060
#
# Disc length: 2414 seconds
#
# Revision: 1
# Processed by: cddbd v1.5.1PL0 Copyright (c) Steve Scherf et al.
# Submitted via: CDex 1.50Beta5
#
DISCID=70096c09
DTITLE=財津和夫 - Naked Heart
DYEAR=1993
DGENRE=
TTITLE0=Naked Heart
TTITLE1=愛を待たせてる
TTITLE2=メルティング
TTITLE3=昼のジェラシー
TTITLE4=1962で抱きしめたい
TTITLE5=ホテルリゾナーレ
TTITLE6=何も考えないで
TTITLE7=Jodie
TTITLE8=Mexicoへ青い空
EXTD=
EXTT0=
EXTT1=
EXTT2=
EXTT3=
EXTT4=
EXTT5=
EXTT6=
EXTT7=
EXTT8=
PLAYORDER=
